<svg width="1500" height="800" viewBox="0 0 1920 1080" xmlns="http://www.w3.org/2000/svg"><defs><radialGradient id="starGradient" cx="50%" cy="50%" r="50%" fx="50%" fy="50%"><stop offset="0%" style="stop-color: white; stop-opacity: 1;"></stop><stop offset="100%" style="stop-color: white; stop-opacity: 0;"></stop></radialGradient><radialGradient id="brightStarGradient" cx="50%" cy="50%" r="50%" fx="50%" fy="50%"><stop offset="0%" style="stop-color: white; stop-opacity: 1;"></stop><stop offset="70%" style="stop-color: white; stop-opacity: 0.7;"></stop><stop offset="100%" style="stop-color: white; stop-opacity: 0;"></stop></radialGradient></defs><rect width="100%" height="100%" fill="transparent"></rect><circle cx="50" cy="50" r="2" fill="url(#starGradient)"></circle><circle cx="200" cy="100" r="1.5" fill="url(#starGradient)"></circle><circle cx="400" cy="200" r="2.5" fill="url(#starGradient)"></circle><circle cx="600" cy="150" r="2" fill="url(#starGradient)"></circle><circle cx="800" cy="300" r="1.5" fill="url(#starGradient)"></circle><circle cx="1000" cy="250" r="2" fill="url(#starGradient)"></circle><circle cx="1200" cy="100" r="1" fill="url(#starGradient)"></circle><circle cx="1400" cy="350" r="2.5" fill="url(#starGradient)"></circle><circle cx="1600" cy="200" r="2" fill="url(#starGradient)"></circle><circle cx="1800" cy="100" r="1.5" fill="url(#starGradient)"></circle><circle cx="200" cy="600" r="2" fill="url(#starGradient)"></circle><circle cx="400" cy="800" r="1.5" fill="url(#starGradient)"></circle><circle cx="600" cy="900" r="2" fill="url(#starGradient)"></circle><circle cx="800" cy="700" r="1" fill="url(#starGradient)"></circle><circle cx="1000" cy="800" r="2.5" fill="url(#starGradient)"></circle><circle cx="1200" cy="950" r="2" fill="url(#starGradient)"></circle><circle cx="1400" cy="700" r="1.5" fill="url(#starGradient)"></circle><circle cx="1600" cy="900" r="2" fill="url(#starGradient)"></circle><circle cx="1800" cy="800" r="1.5" fill="url(#starGradient)"></circle><circle cx="500" cy="400" r="2" fill="url(#starGradient)"></circle><circle cx="700" cy="500" r="1.5" fill="url(#starGradient)"></circle><circle cx="900" cy="600" r="2" fill="url(#starGradient)"></circle><circle cx="1100" cy="450" r="2.5" fill="url(#starGradient)"></circle><circle cx="1300" cy="300" r="2" fill="url(#starGradient)"></circle><circle cx="1500" cy="400" r="1.5" fill="url(#starGradient)"></circle><circle cx="1700" cy="350" r="2" fill="url(#starGradient)"></circle><circle cx="1900" cy="500" r="2.5" fill="url(#starGradient)"></circle><circle cx="100" cy="150" r="3" fill="url(#brightStarGradient)"></circle><circle cx="300" cy="50" r="2.5" fill="url(#brightStarGradient)"></circle><circle cx="500" cy="250" r="3" fill="url(#brightStarGradient)"></circle><circle cx="700" cy="200" r="2.5" fill="url(#brightStarGradient)"></circle><circle cx="900" cy="350" r="3" fill="url(#brightStarGradient)"></circle><circle cx="1100" cy="300" r="2.5" fill="url(#brightStarGradient)"></circle><circle cx="1300" cy="150" r="3" fill="url(#brightStarGradient)"></circle><circle cx="1500" cy="400" r="2.5" fill="url(#brightStarGradient)"></circle><circle cx="1700" cy="300" r="3" fill="url(#brightStarGradient)"></circle><circle cx="1900" cy="200" r="2.5" fill="url(#brightStarGradient)"></circle><circle cx="250" cy="650" r="3" fill="url(#brightStarGradient)"></circle><circle cx="450" cy="850" r="2.5" fill="url(#brightStarGradient)"></circle><circle cx="650" cy="950" r="3" fill="url(#brightStarGradient)"></circle><circle cx="850" cy="750" r="2.5" fill="url(#brightStarGradient)"></circle><circle cx="1050" cy="850" r="3" fill="url(#brightStarGradient)"></circle><circle cx="1250" cy="1000" r="2.5" fill="url(#brightStarGradient)"></circle><circle cx="1450" cy="750" r="3" fill="url(#brightStarGradient)"></circle><circle cx="1650" cy="950" r="2.5" fill="url(#brightStarGradient)"></circle><circle cx="1850" cy="850" r="3" fill="url(#brightStarGradient)"></circle><circle cx="550" cy="450" r="2.5" fill="url(#brightStarGradient)"></circle><circle cx="750" cy="550" r="3" fill="url(#brightStarGradient)"></circle><circle cx="950" cy="650" r="2.5" fill="url(#brightStarGradient)"></circle><circle cx="1150" cy="500" r="3" fill="url(#brightStarGradient)"></circle><circle cx="1350" cy="350" r="2.5" fill="url(#brightStarGradient)"></circle><circle cx="1550" cy="450" r="3" fill="url(#brightStarGradient)"></circle><circle cx="1750" cy="400" r="2.5" fill="url(#brightStarGradient)"></circle><circle cx="1950" cy="550" r="3" fill="url(#brightStarGradient)"></circle></svg>
